<?xml version="1.0" standalone="no"?>
<!DOCTYPE svg PUBLIC "-//W3C//DTD SVG 20010904//EN"
 "http://www.w3.org/TR/2001/REC-SVG-20010904/DTD/svg10.dtd">
<svg version="1.0" xmlns="http://www.w3.org/2000/svg"
 width="300.000000pt" height="321.000000pt" viewBox="0 0 300.000000 321.000000"
 preserveAspectRatio="xMidYMid meet">
<metadata>
Created by potrace 1.10, written by Peter Selinger 2001-2011
</metadata>
<g transform="translate(0.000000,321.000000) scale(0.100000,-0.100000)"
fill="#000000" stroke="none">
<path d="M723 2498 l-573 -573 0 -200 0 -200 567 -567 568 -568 205 0 205 1
570 566 570 566 0 203 0 204 -570 570 -570 570 -200 0 -200 0 -572 -572z m935
533 c15 -1 65 -42 145 -121 67 -66 116 -120 110 -120 -6 0 -24 15 -40 33 -83
92 -162 157 -190 157 -25 0 -102 -73 -545 -515 -317 -317 -519 -526 -522 -541
-8 -32 40 -100 98 -137 35 -22 43 -24 63 -13 13 7 222 209 464 450 439 438
439 439 461 420 11 -11 239 -236 506 -502 266 -266 496 -491 510 -500 23 -15
25 -15 43 7 20 24 23 45 19 126 -3 78 8 49 15 -40 14 -161 11 -190 -18 -219
-14 -14 -28 -26 -31 -26 -3 0 -2 16 1 35 6 36 3 38 -283 326 -601 603 -735
734 -762 746 -36 15 -70 -5 -128 -76 -44 -53 -49 -77 -23 -105 20 -21 7 -24
-24 -6 -32 19 -33 19 -61 1 -27 -18 -356 -342 -567 -558 -74 -76 -99 -108 -99
-128 0 -21 63 -89 324 -350 178 -178 333 -328 345 -334 11 -6 27 -11 36 -11 8
0 143 126 298 281 155 154 300 297 322 318 48 45 70 83 62 110 -3 12 -2 23 2
25 10 7 234 -221 230 -233 -2 -6 -234 -241 -516 -523 -462 -464 -510 -515
-502 -536 5 -12 15 -25 24 -28 30 -12 2 -24 -56 -24 -56 0 -62 2 -101 40 -41
39 -43 54 -4 25 48 -36 45 -39 588 503 575 574 550 543 488 613 -16 19 -30 37
-30 42 0 4 -5 7 -10 7 -6 0 -20 9 -31 19 -17 15 -27 17 -51 10 -22 -6 -164
-141 -470 -449 -362 -362 -443 -438 -456 -430 -9 5 -238 231 -509 502 -271
271 -501 499 -513 506 -28 17 -37 15 -56 -13 -13 -19 -16 -49 -16 -130 1 -100
3 -108 32 -153 l31 -47 -37 40 -37 40 -2 170 c-1 94 2 180 6 192 7 20 61 77
115 124 11 9 26 25 35 35 29 33 169 167 169 161 0 -3 -59 -66 -130 -139 -72
-73 -133 -143 -137 -156 -3 -13 0 -34 7 -47 7 -12 240 -251 519 -529 443 -442
511 -506 537 -506 23 0 43 13 84 54 63 64 72 82 54 116 -7 14 -209 221 -448
460 -240 239 -436 437 -436 440 0 3 192 198 428 432 556 555 602 602 602 622
0 9 -11 22 -25 28 -14 6 -25 15 -25 19 0 8 42 15 75 13 11 -1 30 -2 43 -3z
m-314 -13 c-3 -4 -12 -8 -20 -8 -9 0 -55 -38 -104 -85 -49 -47 -92 -85 -96
-85 -4 0 36 42 89 94 62 62 102 94 115 93 12 0 18 -5 16 -9z m226 -35 c0 -5
-240 -245 -532 -535 l-533 -526 465 -466 465 -466 -63 -62 -62 -63 -526 526
-527 527 533 531 533 530 111 4 c61 1 117 4 124 5 6 1 12 -1 12 -5z m647 -555
l533 -533 0 -125 0 -125 -532 532 -533 531 -465 -459 -464 -459 -63 62 -63 63
522 522 c288 288 525 523 528 523 3 0 245 -240 537 -532z m-168 237 c41 -41
69 -75 64 -75 -6 0 -33 24 -61 54 -27 30 -53 52 -56 49 -3 -4 -6 -1 -6 5 0 6
-7 18 -16 26 -8 9 -11 16 -7 16 5 0 42 -34 82 -75z m-1039 61 c0 -6 -152 -159
-175 -176 -11 -8 23 29 75 83 90 93 100 102 100 93z m1198 -669 l522 -522
-533 -532 -532 -532 -128 -3 c-70 -2 -127 -3 -127 -2 0 0 241 241 535 535
l535 534 -463 462 -463 463 61 60 c33 33 62 60 65 60 3 0 240 -235 528 -523z
m0 452 c18 -17 31 -33 28 -36 -3 -3 -21 11 -40 31 -43 44 -34 48 12 5z m97
-99 c27 -27 47 -51 44 -54 -2 -3 -29 20 -59 50 -29 29 -49 54 -44 54 5 0 31
-23 59 -50z m-1690 -84 c-52 -53 -95 -93 -95 -89 0 9 183 194 187 189 2 -2
-39 -46 -92 -100z m1218 -263 l337 -337 -337 -338 -338 -338 -338 338 -337
337 337 338 c186 185 338 337 338 337 0 0 152 -152 338 -337z m600 208 c-5 -6
-53 41 -65 64 -6 11 7 2 29 -20 22 -22 38 -42 36 -44z m362 -391 c1 -22 -2
-43 -7 -46 -4 -3 -8 10 -8 28 0 18 -9 48 -20 66 -27 45 -25 52 7 20 19 -19 27
-38 28 -68z m-615 -104 c0 -4 -20 12 -45 35 -25 23 -45 46 -45 50 0 4 20 -12
45 -35 25 -24 45 -46 45 -50z m-413 -574 l463 463 62 -63 63 -62 -528 -528
-527 -527 -112 115 c-62 63 -303 306 -535 540 l-423 426 0 124 0 125 538 -538
537 -537 462 462z m-953 -272 c32 -33 55 -60 51 -60 -8 0 -115 107 -115 115 0
10 6 5 64 -55z m131 -130 c52 -52 39 -52 -15 0 -23 22 -38 40 -33 40 4 -1 26
-19 48 -40z m778 -335 c-20 -19 -39 -32 -42 -30 -5 6 59 64 72 65 4 0 -10 -16
-30 -35z"/>
</g>
</svg>
